<svg width="155" height="85" viewBox="0 0 155 85" fill="none" xmlns="http://www.w3.org/2000/svg">
<rect x="29.5" y="20.5" width="91" height="43" rx="10.5" fill="black" fill-opacity="0.25"/>
<path d="M54.2578 35.4629C54.388 35.3978 54.4954 35.3652 54.5801 35.3652C54.7103 35.3652 54.834 35.4238 54.9512 35.541C55.0684 35.6582 55.1953 35.8535 55.332 36.127C55.5013 36.4655 55.5859 36.7357 55.5859 36.9375C55.5859 37.1589 55.4688 37.3314 55.2344 37.4551L49.5215 40.3066L55.2344 43.1582C55.4688 43.2819 55.5859 43.4544 55.5859 43.6758C55.5859 43.8776 55.5013 44.1478 55.332 44.4863C55.1953 44.7598 55.0684 44.9551 54.9512 45.0723C54.834 45.1895 54.7103 45.248 54.5801 45.248C54.4954 45.248 54.388 45.2155 54.2578 45.1504L46.6406 41.2246C46.4779 41.14 46.3607 41.0326 46.2891 40.9023C46.224 40.7721 46.1914 40.5736 46.1914 40.3066C46.1914 40.0397 46.224 39.8411 46.2891 39.7109C46.3607 39.5807 46.4779 39.4733 46.6406 39.3887L54.2578 35.4629ZM66.8359 34.1934C67.2396 34.1934 67.5163 34.2389 67.666 34.3301C67.8158 34.4212 67.8906 34.5807 67.8906 34.8086V38.5586C67.8906 38.7799 67.7897 38.9395 67.5879 39.0371C67.3926 39.1283 67.0638 39.1738 66.6016 39.1738C66.2956 39.1738 66.0579 39.1543 65.8887 39.1152C65.7259 39.0697 65.612 39.0046 65.5469 38.9199C65.4818 38.8353 65.4492 38.7148 65.4492 38.5586C65.4492 37.9076 65.2702 37.3867 64.9121 36.9961C64.5605 36.6055 64.056 36.4102 63.3984 36.4102C62.4935 36.4102 61.8066 36.7357 61.3379 37.3867C60.8691 38.0378 60.6348 38.9753 60.6348 40.1992C60.6348 41.4102 60.8822 42.3477 61.377 43.0117C61.8783 43.6693 62.5846 43.998 63.4961 43.998C64.0625 43.998 64.6061 43.9232 65.127 43.7734C65.6478 43.6172 66.2142 43.3828 66.8262 43.0703C66.9303 43.0182 67.028 42.9922 67.1191 42.9922C67.4251 42.9922 67.679 43.2624 67.8809 43.8027C67.972 44.0501 68.0176 44.2715 68.0176 44.4668C68.0176 44.7988 67.8678 45.0365 67.5684 45.1797C66.1751 45.8698 64.7852 46.2148 63.3984 46.2148C62.3307 46.2148 61.39 45.9707 60.5762 45.4824C59.7624 44.9941 59.1309 44.2975 58.6816 43.3926C58.2389 42.4811 58.0176 41.4167 58.0176 40.1992C58.0176 38.9883 58.2357 37.9303 58.6719 37.0254C59.1081 36.1139 59.7103 35.4141 60.4785 34.9258C61.2533 34.4375 62.1289 34.1934 63.1055 34.1934C64.2448 34.1934 65.0911 34.6035 65.6445 35.4238V34.8086C65.6445 34.5872 65.7389 34.431 65.9277 34.3398C66.1165 34.2422 66.4193 34.1934 66.8359 34.1934ZM79.4043 34.4082C79.6322 34.4082 79.7949 34.457 79.8926 34.5547C79.9902 34.6523 80.0391 34.8151 80.0391 35.043V39.1641C80.0391 39.3789 79.9479 39.5352 79.7656 39.6328C79.5898 39.7305 79.3164 39.7793 78.9453 39.7793C78.5872 39.7793 78.3366 39.7337 78.1934 39.6426C78.0566 39.5449 77.9883 39.3854 77.9883 39.1641V36.5078H76.2207V43.998H78.3301C78.4863 43.998 78.6068 44.0273 78.6914 44.0859C78.776 44.138 78.8379 44.2357 78.877 44.3789C78.9225 44.5221 78.9453 44.7305 78.9453 45.0039C78.9453 45.2773 78.9225 45.4857 78.877 45.6289C78.8379 45.7721 78.776 45.8698 78.6914 45.9219C78.6068 45.974 78.4863 46 78.3301 46H71.6699C71.5137 46 71.3932 45.974 71.3086 45.9219C71.224 45.8698 71.1589 45.7721 71.1133 45.6289C71.0742 45.4857 71.0547 45.2773 71.0547 45.0039C71.0547 44.7305 71.0742 44.5221 71.1133 44.3789C71.1589 44.2357 71.224 44.138 71.3086 44.0859C71.3932 44.0273 71.5137 43.998 71.6699 43.998H73.7793V36.5078H72.0117V39.1641C72.0117 39.3789 71.9206 39.5352 71.7383 39.6328C71.5625 39.7305 71.2891 39.7793 70.918 39.7793C70.5599 39.7793 70.3092 39.7337 70.166 39.6426C70.0293 39.5449 69.9609 39.3854 69.9609 39.1641V35.043C69.9609 34.8151 70.0098 34.6523 70.1074 34.5547C70.2116 34.457 70.3743 34.4082 70.5957 34.4082H79.4043ZM89.8926 32.3379C90.3288 32.3379 90.6934 32.4095 90.9863 32.5527C91.2858 32.696 91.4355 32.8783 91.4355 33.0996C91.4355 33.1712 91.4225 33.2363 91.3965 33.2949L84.8926 49.0957C84.7754 49.3757 84.5085 49.5156 84.0918 49.5156C83.6556 49.5156 83.2878 49.444 82.9883 49.3008C82.6953 49.1576 82.5488 48.9753 82.5488 48.7539C82.5488 48.6823 82.5618 48.6172 82.5879 48.5586L89.0918 32.7578C89.209 32.4779 89.4759 32.3379 89.8926 32.3379ZM103.359 39.3887C103.522 39.4733 103.636 39.5807 103.701 39.7109C103.773 39.8411 103.809 40.0397 103.809 40.3066C103.809 40.5736 103.773 40.7721 103.701 40.9023C103.636 41.0326 103.522 41.14 103.359 41.2246L95.7422 45.1504C95.612 45.2155 95.5046 45.248 95.4199 45.248C95.2897 45.248 95.166 45.1895 95.0488 45.0723C94.9316 44.9551 94.8047 44.7598 94.668 44.4863C94.4987 44.1478 94.4141 43.8776 94.4141 43.6758C94.4141 43.4544 94.5312 43.2819 94.7656 43.1582L100.479 40.3066L94.7656 37.4551C94.5312 37.3314 94.4141 37.1589 94.4141 36.9375C94.4141 36.7357 94.4987 36.4655 94.668 36.127C94.8047 35.8535 94.9316 35.6582 95.0488 35.541C95.166 35.4238 95.2897 35.3652 95.4199 35.3652C95.5046 35.3652 95.612 35.3978 95.7422 35.4629L103.359 39.3887Z" fill="#FFD300"/>
<path d="M54.2578 35.4629L53.8106 34.5684L53.7997 34.574L54.2578 35.4629ZM55.332 36.127L56.2265 35.6797L55.332 36.127ZM55.2344 37.4551L55.681 38.3498L55.6911 38.3448L55.7011 38.3395L55.2344 37.4551ZM49.5215 40.3066L49.0749 39.4119L47.2824 40.3066L49.0749 41.2014L49.5215 40.3066ZM55.2344 43.1582L55.7011 42.2738L55.6911 42.2685L55.681 42.2635L55.2344 43.1582ZM55.332 44.4863L56.2265 44.9335L55.332 44.4863ZM54.2578 45.1504L53.7997 46.0393L53.8106 46.0448L54.2578 45.1504ZM46.6406 41.2246L46.1793 42.1118L46.1825 42.1135L46.6406 41.2246ZM46.2891 40.9023L45.3946 41.3496L45.4034 41.3671L45.4128 41.3843L46.2891 40.9023ZM46.2891 39.7109L45.4128 39.229L45.4034 39.2462L45.3946 39.2637L46.2891 39.7109ZM46.6406 39.3887L46.1825 38.4998L46.1793 38.5015L46.6406 39.3887ZM54.705 36.3573C54.7336 36.343 54.7396 36.3426 54.726 36.3467C54.7144 36.3502 54.6621 36.3652 54.5801 36.3652V34.3652C54.2661 34.3652 53.9931 34.4772 53.8106 34.5685L54.705 36.3573ZM54.5801 36.3652C54.4895 36.3652 54.4074 36.3437 54.3424 36.3129C54.2814 36.284 54.25 36.254 54.2441 36.2481L55.6583 34.8339C55.4073 34.5829 55.0429 34.3652 54.5801 34.3652V36.3652ZM54.2441 36.2481C54.238 36.2421 54.2564 36.2596 54.2958 36.3204C54.3337 36.3786 54.3812 36.4613 54.4376 36.5742L56.2265 35.6797C56.0751 35.3769 55.8906 35.0662 55.6583 34.8339L54.2441 36.2481ZM54.4376 36.5742C54.5058 36.7105 54.5461 36.812 54.5682 36.8824C54.5914 36.9565 54.5859 36.9697 54.5859 36.9375H56.5859C56.5859 36.4972 56.4146 36.0559 56.2265 35.6797L54.4376 36.5742ZM54.5859 36.9375C54.5859 36.8608 54.6098 36.7609 54.6708 36.671C54.7258 36.5902 54.7783 36.565 54.7676 36.5707L55.7011 38.3395C56.1857 38.0837 56.5859 37.6101 56.5859 36.9375H54.5859ZM54.7878 36.5603L49.0749 39.4119L49.9681 41.2014L55.681 38.3498L54.7878 36.5603ZM49.0749 41.2014L54.7878 44.0529L55.681 42.2635L49.9681 39.4119L49.0749 41.2014ZM54.7676 44.0426C54.7783 44.0482 54.7258 44.0231 54.6708 43.9423C54.6098 43.8524 54.5859 43.7525 54.5859 43.6758H56.5859C56.5859 43.0032 56.1857 42.5296 55.7011 42.2738L54.7676 44.0426ZM54.5859 43.6758C54.5859 43.6436 54.5914 43.6567 54.5682 43.7309C54.5461 43.8013 54.5058 43.9028 54.4376 44.0391L56.2265 44.9335C56.4146 44.5573 56.5859 44.1161 56.5859 43.6758H54.5859ZM54.4376 44.0391C54.3812 44.1519 54.3337 44.2347 54.2958 44.2929C54.2564 44.3536 54.238 44.3712 54.2441 44.3652L55.6583 45.7794C55.8906 45.547 56.0751 45.2363 56.2265 44.9335L54.4376 44.0391ZM54.2441 44.3652C54.25 44.3593 54.2814 44.3292 54.3424 44.3004C54.4074 44.2696 54.4895 44.248 54.5801 44.248V46.248C55.0429 46.248 55.4073 46.0304 55.6583 45.7794L54.2441 44.3652ZM54.5801 44.248C54.6621 44.248 54.7144 44.2631 54.726 44.2666C54.7396 44.2707 54.7336 44.2702 54.705 44.256L53.8106 46.0448C53.9931 46.1361 54.2661 46.248 54.5801 46.248V44.248ZM54.7159 44.2615L47.0987 40.3357L46.1825 42.1135L53.7997 46.0393L54.7159 44.2615ZM47.102 40.3374C47.0867 40.3294 47.0914 40.3297 47.1064 40.3434C47.1225 40.3581 47.1451 40.3836 47.1653 40.4204L45.4128 41.3843C45.5999 41.7244 45.8826 41.9575 46.1793 42.1118L47.102 40.3374ZM47.1835 40.4551C47.1974 40.483 47.2034 40.5019 47.2049 40.5071C47.2066 40.5126 47.2051 40.509 47.2026 40.494C47.1974 40.4622 47.1914 40.4023 47.1914 40.3066H45.1914C45.1914 40.62 45.2239 41.0081 45.3946 41.3496L47.1835 40.4551ZM47.1914 40.3066C47.1914 40.211 47.1974 40.1511 47.2026 40.1193C47.2051 40.1043 47.2066 40.1007 47.2049 40.1061C47.2034 40.1114 47.1974 40.1303 47.1835 40.1582L45.3946 39.2637C45.2239 39.6052 45.1914 39.9933 45.1914 40.3066H47.1914ZM47.1653 40.1929C47.1451 40.2296 47.1225 40.2551 47.1064 40.2699C47.0914 40.2836 47.0867 40.2839 47.102 40.2759L46.1793 38.5015C45.8826 38.6557 45.5999 38.8889 45.4128 39.229L47.1653 40.1929ZM47.0987 40.2776L54.7159 36.3518L53.7997 34.574L46.1825 38.4998L47.0987 40.2776ZM67.5879 39.0371L68.0108 39.9434L68.0235 39.9373L67.5879 39.0371ZM65.8887 39.1152L65.619 40.0782L65.6413 40.0844L65.6638 40.0896L65.8887 39.1152ZM64.9121 36.9961L64.1688 37.6651L64.175 37.6718L64.9121 36.9961ZM61.377 43.0117L60.575 43.6092L60.5817 43.618L61.377 43.0117ZM65.127 43.7734L65.4033 44.7346L65.4143 44.7313L65.127 43.7734ZM66.8262 43.0703L66.3789 42.1759L66.3714 42.1797L66.8262 43.0703ZM67.8809 43.8027L68.8192 43.457L68.8177 43.4528L67.8809 43.8027ZM67.5684 45.1797L67.1369 44.2775L67.1245 44.2836L67.5684 45.1797ZM58.6816 43.3926L57.7821 43.8295L57.7859 43.8372L58.6816 43.3926ZM58.6719 37.0254L59.5727 37.4596L59.5739 37.4571L58.6719 37.0254ZM60.4785 34.9258L59.9453 34.0798L59.9421 34.0818L60.4785 34.9258ZM65.6445 35.4238L64.8155 35.9831L66.6445 38.6943V35.4238H65.6445ZM65.9277 34.3398L66.3625 35.2404L66.3749 35.2344L66.3872 35.2281L65.9277 34.3398ZM66.8359 35.1934C67.0048 35.1934 67.1167 35.2032 67.1837 35.2142C67.216 35.2196 67.2279 35.2236 67.2246 35.2225C67.2224 35.2218 67.1916 35.212 67.1461 35.1843L68.186 33.4759C67.9556 33.3357 67.7067 33.2734 67.5087 33.2408C67.2989 33.2063 67.0707 33.1934 66.8359 33.1934V35.1934ZM67.1461 35.1843C67.0522 35.1271 66.9748 35.0401 66.9292 34.943C66.8888 34.8568 66.8906 34.8001 66.8906 34.8086H68.8906C68.8906 34.3508 68.7231 33.8028 68.186 33.4759L67.1461 35.1843ZM66.8906 34.8086V38.5586H68.8906V34.8086H66.8906ZM66.8906 38.5586C66.8906 38.5132 66.9027 38.4158 66.9699 38.3096C67.0365 38.2042 67.1172 38.1539 67.1523 38.137L68.0235 39.9373C68.2604 39.8226 68.4924 39.6438 68.66 39.3789C68.8281 39.1132 68.8906 38.8253 68.8906 38.5586H66.8906ZM67.165 38.1309C67.1927 38.118 67.1703 38.1335 67.0575 38.1491C66.9524 38.1637 66.8031 38.1738 66.6016 38.1738V40.1738C67.08 40.1738 67.6015 40.1343 68.0108 39.9433L67.165 38.1309ZM66.6016 38.1738C66.3233 38.1738 66.1737 38.1547 66.1135 38.1408L65.6638 40.0896C65.9422 40.1539 66.2678 40.1738 66.6016 40.1738V38.1738ZM66.1583 38.1523C66.1346 38.1456 66.1459 38.1461 66.1773 38.164C66.2097 38.1825 66.2751 38.2265 66.3395 38.3102L64.7543 39.5296C65.0079 39.8593 65.3611 40.006 65.619 40.0782L66.1583 38.1523ZM66.3395 38.3102C66.4585 38.465 66.4492 38.5927 66.4492 38.5586H64.4492C64.4492 38.837 64.505 39.2056 64.7543 39.5296L66.3395 38.3102ZM66.4492 38.5586C66.4492 37.7173 66.213 36.9353 65.6493 36.3204L64.175 37.6718C64.3274 37.8381 64.4492 38.0978 64.4492 38.5586H66.4492ZM65.6554 36.3271C65.0684 35.6749 64.263 35.4102 63.3984 35.4102V37.4102C63.849 37.4102 64.0527 37.536 64.1688 37.6651L65.6554 36.3271ZM63.3984 35.4102C62.2194 35.4102 61.2092 35.854 60.5264 36.8024L62.1494 37.971C62.4041 37.6173 62.7676 37.4102 63.3984 37.4102V35.4102ZM60.5264 36.8024C59.8859 37.6919 59.6348 38.8691 59.6348 40.1992H61.6348C61.6348 39.0814 61.8523 38.3836 62.1494 37.971L60.5264 36.8024ZM59.6348 40.1992C59.6348 41.53 59.9044 42.7091 60.5751 43.6092L62.1788 42.4142C61.8599 41.9862 61.6348 41.2903 61.6348 40.1992H59.6348ZM60.5817 43.618C61.2934 44.5515 62.3094 44.998 63.4961 44.998V42.998C62.8599 42.998 62.4632 42.7871 62.1722 42.4054L60.5817 43.618ZM63.4961 44.998C64.1517 44.998 64.7886 44.9112 65.4033 44.7345L64.8506 42.8124C64.4236 42.9351 63.9733 42.998 63.4961 42.998V44.998ZM65.4143 44.7313C66.0056 44.5539 66.6286 44.294 67.2809 43.9609L66.3714 42.1797C65.7998 42.4716 65.29 42.6805 64.8396 42.8156L65.4143 44.7313ZM67.2734 43.9647C67.2734 43.9647 67.2726 43.9651 67.2711 43.9658C67.2695 43.9665 67.2672 43.9675 67.2641 43.9687C67.2578 43.9711 67.2482 43.9745 67.2352 43.978C67.209 43.9849 67.1694 43.9922 67.1191 43.9922V41.9922C66.8357 41.9922 66.5846 42.0731 66.379 42.1759L67.2734 43.9647ZM67.1191 43.9922C67.0427 43.9922 66.9676 43.974 66.9043 43.9435C66.8448 43.9148 66.815 43.8846 66.8103 43.8796C66.8066 43.8756 66.8212 43.8904 66.8481 43.9382C66.8746 43.9854 66.9076 44.0549 66.9441 44.1526L68.8177 43.4528C68.6933 43.12 68.5219 42.7804 68.2678 42.51C67.9949 42.2197 67.6053 41.9922 67.1191 41.9922V43.9922ZM66.9425 44.1484C67.0062 44.3214 67.0176 44.4227 67.0176 44.4668H69.0176C69.0176 44.1202 68.9378 43.7789 68.8192 43.457L66.9425 44.1484ZM67.0176 44.4668C67.0176 44.479 67.0164 44.4288 67.0592 44.3609C67.102 44.293 67.1478 44.2723 67.1369 44.2776L67.9998 46.0818C68.2884 45.9438 68.5588 45.7327 68.7513 45.4272C68.9439 45.1216 69.0176 44.7866 69.0176 44.4668H67.0176ZM67.1245 44.2836C65.8524 44.9137 64.6134 45.2148 63.3984 45.2148V47.2148C64.9569 47.2148 66.4979 46.8259 68.0122 46.0758L67.1245 44.2836ZM63.3984 45.2148C62.4888 45.2148 61.7303 45.0087 61.0907 44.6249L60.0617 46.3399C61.0497 46.9327 62.1727 47.2148 63.3984 47.2148V45.2148ZM61.0907 44.6249C60.4515 44.2414 59.9473 43.6932 59.5774 42.9479L57.7859 43.8372C58.3144 44.9018 59.0732 45.7468 60.0617 46.3399L61.0907 44.6249ZM59.5811 42.9557C59.2166 42.2051 59.0176 41.2954 59.0176 40.1992H57.0176C57.0176 41.5379 57.2613 42.7572 57.7821 43.8295L59.5811 42.9557ZM59.0176 40.1992C59.0176 39.1082 59.2138 38.2041 59.5727 37.4596L57.7711 36.5912C57.2575 37.6566 57.0176 38.8684 57.0176 40.1992H59.0176ZM59.5739 37.4571C59.9384 36.6954 60.4218 36.1467 61.0149 35.7697L59.9421 34.0818C58.9988 34.6814 58.2777 35.5325 57.7698 36.5937L59.5739 37.4571ZM61.0117 35.7718C61.6161 35.3909 62.3045 35.1934 63.1055 35.1934V33.1934C61.9533 33.1934 60.8904 33.4841 59.9453 34.0798L61.0117 35.7718ZM63.1055 35.1934C63.9708 35.1934 64.4785 35.4835 64.8155 35.9831L66.4735 34.8646C65.7038 33.7235 64.5188 33.1934 63.1055 33.1934V35.1934ZM66.6445 35.4238V34.8086H64.6445V35.4238H66.6445ZM66.6445 34.8086C66.6445 34.8414 66.6365 34.9344 66.5712 35.0425C66.5039 35.1539 66.4161 35.2145 66.3625 35.2404L65.493 33.4393C65.2506 33.5563 65.0211 33.7406 64.8594 34.0083C64.6997 34.2726 64.6445 34.5544 64.6445 34.8086H66.6445ZM66.3872 35.2281C66.3558 35.2443 66.3668 35.2316 66.4556 35.2172C66.5395 35.2037 66.6634 35.1934 66.8359 35.1934V33.1934C66.3848 33.1934 65.8795 33.239 65.4683 33.4516L66.3872 35.2281ZM79.7656 39.6328L79.2934 38.7513L79.2867 38.7549L79.28 38.7587L79.7656 39.6328ZM78.1934 39.6426L77.6121 40.4563L77.6339 40.4719L77.6565 40.4862L78.1934 39.6426ZM77.9883 36.5078H78.9883V35.5078H77.9883V36.5078ZM76.2207 36.5078V35.5078H75.2207V36.5078H76.2207ZM76.2207 43.998H75.2207V44.998H76.2207V43.998ZM78.6914 44.0859L78.1222 44.9081L78.1444 44.9235L78.1673 44.9376L78.6914 44.0859ZM78.877 44.3789L77.9122 44.642L77.9177 44.6622L77.924 44.6821L78.877 44.3789ZM78.877 45.6289L77.924 45.3257L77.9177 45.3456L77.9122 45.3658L78.877 45.6289ZM71.1133 45.6289L70.1485 45.892L70.154 45.9122L70.1604 45.9321L71.1133 45.6289ZM71.1133 44.3789L70.1604 44.0757L70.154 44.0956L70.1485 44.1158L71.1133 44.3789ZM71.3086 44.0859L71.8327 44.9376L71.8556 44.9235L71.8778 44.9081L71.3086 44.0859ZM73.7793 43.998V44.998H74.7793V43.998H73.7793ZM73.7793 36.5078H74.7793V35.5078H73.7793V36.5078ZM72.0117 36.5078V35.5078H71.0117V36.5078H72.0117ZM71.7383 39.6328L71.2661 38.7513L71.2593 38.7549L71.2526 38.7587L71.7383 39.6328ZM70.166 39.6426L69.5848 40.4563L69.6066 40.4719L69.6291 40.4862L70.166 39.6426ZM70.1074 34.5547L69.4235 33.8252L69.4117 33.8362L69.4003 33.8476L70.1074 34.5547ZM79.4043 35.4082C79.4518 35.4082 79.4473 35.4139 79.4099 35.4027C79.3688 35.3903 79.2777 35.354 79.1855 35.2618L80.5997 33.8476C80.224 33.4719 79.7337 33.4082 79.4043 33.4082V35.4082ZM79.1855 35.2618C79.0933 35.1696 79.0569 35.0784 79.0446 35.0373C79.0334 34.9999 79.0391 34.9955 79.0391 35.043H81.0391C81.0391 34.7136 80.9754 34.2233 80.5997 33.8476L79.1855 35.2618ZM79.0391 35.043V39.1641H81.0391V35.043H79.0391ZM79.0391 39.1641C79.0391 39.1278 79.0478 39.0398 79.1069 38.9385C79.1672 38.8352 79.2455 38.777 79.2934 38.7513L80.2378 40.5143C80.4681 40.391 80.683 40.2059 80.8345 39.9463C80.9847 39.6887 81.0391 39.4151 81.0391 39.1641H79.0391ZM79.28 38.7587C79.3176 38.7378 79.3193 38.7464 79.2529 38.7582C79.1898 38.7695 79.0902 38.7793 78.9453 38.7793V40.7793C79.3649 40.7793 79.8482 40.7309 80.2513 40.507L79.28 38.7587ZM78.9453 38.7793C78.8042 38.7793 78.7156 38.77 78.6677 38.7612C78.6449 38.7571 78.6402 38.7547 78.6488 38.7577C78.657 38.7605 78.6877 38.7719 78.7302 38.7989L77.6565 40.4862C78.0597 40.7428 78.5661 40.7793 78.9453 40.7793V38.7793ZM78.7746 38.8288C78.8602 38.89 78.9233 38.9731 78.9587 39.0558C78.9904 39.1297 78.9883 39.1752 78.9883 39.1641H76.9883C76.9883 39.5957 77.1327 40.1138 77.6121 40.4563L78.7746 38.8288ZM78.9883 39.1641V36.5078H76.9883V39.1641H78.9883ZM77.9883 35.5078H76.2207V37.5078H77.9883V35.5078ZM75.2207 36.5078V43.998H77.2207V36.5078H75.2207ZM76.2207 44.998H78.3301V42.998H76.2207V44.998ZM78.3301 44.998C78.3482 44.998 78.3354 45 78.3012 44.9917C78.266 44.9831 78.199 44.9613 78.1222 44.9081L79.2606 43.2637C78.9427 43.0436 78.591 42.998 78.3301 42.998V44.998ZM78.1673 44.9376C78.0605 44.8718 77.9937 44.7921 77.9565 44.7333C77.9384 44.7048 77.9273 44.6814 77.921 44.6664C77.9148 44.6514 77.9124 44.6426 77.9122 44.642L79.8417 44.1158C79.7682 43.8462 79.6023 43.4723 79.2155 43.2343L78.1673 44.9376ZM77.924 44.6821C77.9205 44.6712 77.9274 44.6895 77.9342 44.7513C77.9406 44.8104 77.9453 44.8932 77.9453 45.0039H79.9453C79.9453 44.6972 79.9224 44.3665 79.8299 44.0757L77.924 44.6821ZM77.9453 45.0039C77.9453 45.1146 77.9406 45.1974 77.9342 45.2565C77.9274 45.3184 77.9205 45.3367 77.924 45.3257L79.8299 45.9321C79.9224 45.6413 79.9453 45.3106 79.9453 45.0039H77.9453ZM77.9122 45.3658C77.9124 45.3652 77.9148 45.3564 77.921 45.3414C77.9273 45.3264 77.9384 45.303 77.9565 45.2745C77.9937 45.2157 78.0605 45.136 78.1673 45.0702L79.2155 46.7735C79.6023 46.5355 79.7682 46.1616 79.8417 45.892L77.9122 45.3658ZM78.1673 45.0702C78.2413 45.0247 78.3014 45.0084 78.3263 45.0031C78.3511 44.9977 78.3551 45 78.3301 45V47C78.5746 47 78.9073 46.9632 79.2155 46.7735L78.1673 45.0702ZM78.3301 45H71.6699V47H78.3301V45ZM71.6699 45C71.6449 45 71.6489 44.9977 71.6737 45.0031C71.6986 45.0084 71.7587 45.0247 71.8327 45.0702L70.7845 46.7735C71.0927 46.9632 71.4254 47 71.6699 47V45ZM71.8327 45.0702C72.0342 45.1942 72.075 45.3534 72.0662 45.3257L70.1604 45.9321C70.2427 46.1908 70.4137 46.5453 70.7845 46.7735L71.8327 45.0702ZM72.078 45.3658C72.0784 45.3672 72.0714 45.34 72.065 45.2719C72.0588 45.2065 72.0547 45.1183 72.0547 45.0039H70.0547C70.0547 45.305 70.0741 45.6192 70.1485 45.892L72.078 45.3658ZM72.0547 45.0039C72.0547 44.8895 72.0588 44.8013 72.065 44.7359C72.0714 44.6679 72.0784 44.6407 72.078 44.642L70.1485 44.1158C70.0741 44.3886 70.0547 44.7028 70.0547 45.0039H72.0547ZM72.0662 44.6821C72.075 44.6544 72.0342 44.8136 71.8327 44.9376L70.7845 43.2343C70.4137 43.4625 70.2427 43.817 70.1604 44.0757L72.0662 44.6821ZM71.8778 44.9081C71.801 44.9613 71.734 44.9831 71.6988 44.9917C71.6646 45 71.6518 44.998 71.6699 44.998V42.998C71.409 42.998 71.0573 43.0436 70.7394 43.2637L71.8778 44.9081ZM71.6699 44.998H73.7793V42.998H71.6699V44.998ZM74.7793 43.998V36.5078H72.7793V43.998H74.7793ZM73.7793 35.5078H72.0117V37.5078H73.7793V35.5078ZM71.0117 36.5078V39.1641H73.0117V36.5078H71.0117ZM71.0117 39.1641C71.0117 39.1278 71.0205 39.0398 71.0796 38.9385C71.1399 38.8352 71.2181 38.777 71.2661 38.7513L72.2105 40.5143C72.4407 40.391 72.6557 40.2059 72.8071 39.9463C72.9574 39.6887 73.0117 39.4151 73.0117 39.1641H71.0117ZM71.2526 38.7587C71.2902 38.7378 71.292 38.7464 71.2256 38.7582C71.1625 38.7695 71.0629 38.7793 70.918 38.7793V40.7793C71.3376 40.7793 71.8209 40.7309 72.2239 40.507L71.2526 38.7587ZM70.918 38.7793C70.7769 38.7793 70.6883 38.77 70.6403 38.7612C70.6176 38.7571 70.6129 38.7547 70.6215 38.7577C70.6297 38.7605 70.6604 38.7719 70.7029 38.7989L69.6291 40.4862C70.0323 40.7428 70.5387 40.7793 70.918 40.7793V38.7793ZM70.7473 38.8288C70.8329 38.89 70.8959 38.9731 70.9314 39.0558C70.963 39.1297 70.9609 39.1752 70.9609 39.1641H68.9609C68.9609 39.5957 69.1053 40.1138 69.5848 40.4563L70.7473 38.8288ZM70.9609 39.1641V35.043H68.9609V39.1641H70.9609ZM70.9609 35.043C70.9609 34.9955 70.9666 34.9999 70.9554 35.0373C70.9431 35.0784 70.9067 35.1696 70.8145 35.2618L69.4003 33.8476C69.0246 34.2233 68.9609 34.7136 68.9609 35.043H70.9609ZM70.7914 35.2842C70.7112 35.3594 70.6337 35.391 70.595 35.4027C70.5599 35.4132 70.5547 35.4082 70.5957 35.4082V33.4082C70.2553 33.4082 69.7923 33.4793 69.4235 33.8252L70.7914 35.2842ZM70.5957 35.4082H79.4043V33.4082H70.5957V35.4082ZM90.9863 32.5527L90.5471 33.4512L90.5549 33.4549L90.9863 32.5527ZM91.3965 33.2949L90.4827 32.8888L90.477 32.9015L90.4718 32.9143L91.3965 33.2949ZM84.8926 49.0957L85.815 49.4818L85.8173 49.4763L84.8926 49.0957ZM82.9883 49.3008L82.5491 50.1992L82.5568 50.2029L82.9883 49.3008ZM82.5879 48.5586L83.5017 48.9647L83.5073 48.9521L83.5126 48.9392L82.5879 48.5586ZM89.0918 32.7578L88.1693 32.3717L88.1671 32.3772L89.0918 32.7578ZM89.8926 33.3379C90.2255 33.3379 90.429 33.3934 90.5471 33.4511L91.4255 31.6544C90.9577 31.4256 90.432 31.3379 89.8926 31.3379V33.3379ZM90.5549 33.4549C90.6228 33.4874 90.5983 33.4897 90.5505 33.4316C90.5242 33.3996 90.4933 33.3519 90.4699 33.2887C90.4462 33.2247 90.4355 33.1596 90.4355 33.0996H92.4355C92.4355 32.3158 91.8693 31.8665 91.4178 31.6506L90.5549 33.4549ZM90.4355 33.0996C90.4355 33.0477 90.4456 32.9722 90.4827 32.8888L92.3103 33.7011C92.3995 33.5004 92.4355 33.2947 92.4355 33.0996H90.4355ZM90.4718 32.9143L83.9679 48.7151L85.8173 49.4763L92.3212 33.6756L90.4718 32.9143ZM83.9701 48.7096C83.9823 48.6805 84.004 48.6424 84.0387 48.6045C84.0735 48.5665 84.1103 48.5407 84.1401 48.525C84.1941 48.4967 84.197 48.5156 84.0918 48.5156V50.5156C84.4033 50.5156 84.748 50.4646 85.0689 50.2963C85.4101 50.1174 85.6672 49.8349 85.815 49.4818L83.9701 48.7096ZM84.0918 48.5156C83.76 48.5156 83.5491 48.4605 83.4197 48.3986L82.5568 50.2029C83.0264 50.4275 83.5512 50.5156 84.0918 50.5156V48.5156ZM83.4275 48.4024C83.3642 48.3715 83.3905 48.3709 83.4382 48.4302C83.4643 48.4627 83.494 48.5099 83.5163 48.5715C83.5389 48.6338 83.5488 48.6966 83.5488 48.7539H81.5488C81.5488 49.5259 82.0964 49.9778 82.5491 50.1992L83.4275 48.4024ZM83.5488 48.7539C83.5488 48.8058 83.5388 48.8813 83.5017 48.9647L81.6741 48.1525C81.5849 48.3531 81.5488 48.5588 81.5488 48.7539H83.5488ZM83.5126 48.9392L90.0165 33.1384L88.1671 32.3772L81.6632 48.178L83.5126 48.9392ZM90.0142 33.144C90.0021 33.173 89.9803 33.2111 89.9456 33.249C89.9109 33.2871 89.8741 33.3129 89.8443 33.3285C89.7903 33.3568 89.7874 33.3379 89.8926 33.3379V31.3379C89.5811 31.3379 89.2364 31.389 88.9155 31.5573C88.5743 31.7362 88.3172 32.0186 88.1694 32.3717L90.0142 33.144ZM103.359 39.3887L103.821 38.5014L103.817 38.4998L103.359 39.3887ZM103.701 39.7109L102.807 40.1582L102.816 40.1757L102.825 40.1929L103.701 39.7109ZM103.701 40.9023L102.825 40.4204L102.816 40.4376L102.807 40.4551L103.701 40.9023ZM103.359 41.2246L103.817 42.1135L103.821 42.1118L103.359 41.2246ZM95.7422 45.1504L96.1894 46.0449L96.2003 46.0393L95.7422 45.1504ZM94.7656 43.1582L94.319 42.2635L94.3089 42.2685L94.2989 42.2738L94.7656 43.1582ZM100.479 40.3066L100.925 41.2014L102.718 40.3066L100.925 39.4119L100.479 40.3066ZM94.7656 37.4551L94.2989 38.3395L94.3089 38.3448L94.319 38.3498L94.7656 37.4551ZM94.668 36.127L95.5624 36.5742L94.668 36.127ZM95.7422 35.4629L96.2003 34.5739L96.1894 34.5685L95.7422 35.4629ZM102.898 40.2759C102.911 40.2827 102.901 40.2797 102.881 40.2603C102.859 40.2396 102.831 40.2057 102.807 40.1582L104.596 39.2637C104.414 38.9007 104.122 38.6579 103.821 38.5015L102.898 40.2759ZM102.825 40.1929C102.808 40.1627 102.801 40.1408 102.798 40.132C102.795 40.1231 102.795 40.1232 102.798 40.135C102.802 40.1605 102.809 40.2149 102.809 40.3066H104.809C104.809 39.9859 104.772 39.5823 104.577 39.229L102.825 40.1929ZM102.809 40.3066C102.809 40.3984 102.802 40.4528 102.798 40.4783C102.795 40.4901 102.795 40.4902 102.798 40.4813C102.801 40.4725 102.808 40.4506 102.825 40.4204L104.577 41.3843C104.772 41.0309 104.809 40.6274 104.809 40.3066H102.809ZM102.807 40.4551C102.831 40.4076 102.859 40.3737 102.881 40.353C102.901 40.3336 102.911 40.3306 102.898 40.3374L103.821 42.1118C104.122 41.9554 104.414 41.7126 104.596 41.3496L102.807 40.4551ZM102.901 40.3357L95.2841 44.2615L96.2003 46.0393L103.817 42.1135L102.901 40.3357ZM95.295 44.256C95.2664 44.2702 95.2604 44.2707 95.274 44.2666C95.2856 44.2631 95.3379 44.248 95.4199 44.248V46.248C95.7339 46.248 96.0069 46.1361 96.1894 46.0448L95.295 44.256ZM95.4199 44.248C95.5105 44.248 95.5926 44.2696 95.6576 44.3004C95.7186 44.3292 95.75 44.3593 95.7559 44.3652L94.3417 45.7794C94.5927 46.0304 94.9571 46.248 95.4199 46.248V44.248ZM95.7559 44.3652C95.762 44.3712 95.7436 44.3536 95.7042 44.2929C95.6663 44.2347 95.6188 44.1519 95.5624 44.0391L93.7735 44.9335C93.9249 45.2363 94.1094 45.547 94.3417 45.7794L95.7559 44.3652ZM95.5624 44.0391C95.4942 43.9028 95.4539 43.8013 95.4318 43.7309C95.4086 43.6567 95.4141 43.6436 95.4141 43.6758H93.4141C93.4141 44.1161 93.5854 44.5573 93.7735 44.9335L95.5624 44.0391ZM95.4141 43.6758C95.4141 43.7525 95.3902 43.8524 95.3292 43.9423C95.2742 44.0231 95.2217 44.0482 95.2324 44.0426L94.2989 42.2738C93.8143 42.5296 93.4141 43.0032 93.4141 43.6758H95.4141ZM95.2122 44.0529L100.925 41.2014L100.032 39.4119L94.319 42.2635L95.2122 44.0529ZM100.925 39.4119L95.2122 36.5603L94.319 38.3498L100.032 41.2014L100.925 39.4119ZM95.2324 36.5707C95.2217 36.565 95.2742 36.5902 95.3292 36.671C95.3902 36.7609 95.4141 36.8608 95.4141 36.9375H93.4141C93.4141 37.6101 93.8143 38.0837 94.2989 38.3395L95.2324 36.5707ZM95.4141 36.9375C95.4141 36.9697 95.4086 36.9565 95.4318 36.8824C95.4539 36.812 95.4942 36.7105 95.5624 36.5742L93.7735 35.6797C93.5854 36.0559 93.4141 36.4972 93.4141 36.9375H95.4141ZM95.5624 36.5742C95.6188 36.4613 95.6663 36.3786 95.7042 36.3204C95.7436 36.2596 95.762 36.2421 95.7559 36.2481L94.3417 34.8339C94.1094 35.0662 93.9249 35.3769 93.7735 35.6797L95.5624 36.5742ZM95.7559 36.2481C95.75 36.254 95.7186 36.284 95.6576 36.3129C95.5926 36.3437 95.5105 36.3652 95.4199 36.3652V34.3652C94.9571 34.3652 94.5927 34.5829 94.3417 34.8339L95.7559 36.2481ZM95.4199 36.3652C95.3379 36.3652 95.2856 36.3502 95.274 36.3467C95.2604 36.3426 95.2664 36.343 95.295 36.3573L96.1894 34.5685C96.0069 34.4772 95.7339 34.3652 95.4199 34.3652V36.3652ZM95.2841 36.3518L102.901 40.2776L103.817 38.4998L96.2003 34.574L95.2841 36.3518Z" fill="black"/>
<rect x="29.5" y="20.5" width="91" height="43" rx="10.5" stroke="#FFD300" stroke-width="3"/>
</svg>
